<?xml version="1.0" encoding="utf-8"?>
<!-- Generator: Adobe Illustrator 19.1.0, SVG Export Plug-In . SVG Version: 6.00 Build 0)  -->
<svg version="1.1" id="Layer_1" xmlns="http://www.w3.org/2000/svg" xmlns:xlink="http://www.w3.org/1999/xlink" x="0px" y="0px"
	 viewBox="0 0 96.4 30.2" style="enable-background:new 0 0 96.4 30.2;" xml:space="preserve">
<style type="text/css">
	.st0{opacity:0.7;}
</style>
<g class="st0">
	<path d="M0,0h6.6v11.3h12.9V0h6.6v30.2h-6.6v-13H6.6v13H0V0z"/>
	<path d="M30.2,0h10.1l6.9,19.7h0.1l7-19.7h10v30.2h-6.6V7h-0.1l-7.9,23.1h-5.1L36.9,7h-0.1v23.1h-6.6V0z"/>
	<path d="M76.2,14.4L66.3,0h8.4l6.4,10.6L87.2,0h8.1l-9.8,14.3l10.9,15.9h-8.4L80.7,18l-7.2,12.1h-7.9L76.2,14.4z"/>
</g>
</svg>
